<svg
  xmlns:cc="http://creativecommons.org/ns#"
  xmlns:rdf="http://www.w3.org/1999/02/22-rdf-syntax-ns#"
  xmlns:svg="http://www.w3.org/2000/svg"
  xmlns="http://www.w3.org/2000/svg"
  xmlns:xlink="http://www.w3.org/1999/xlink"
  viewBox="0 0 1024 768"
  version="1.1"
>
  <g>
    <g transform="translate(-1.1368683772161603e-13 0)">
      <g
        style="
          font-style: normal;
          font-weight: normal;
          font-size: 72px;
          line-height: 1;
          font-family: 'Brandmark Sans 30 Color';
          font-variant-ligatures: normal;
          text-align: center;
          text-anchor: middle;
        "
        transform="translate(0 0)"
      >
        <g
          aria-label="L"
          transform="translate(0 319.64536000000004) translate(286.96465035000006 32.028800000000004) scale(1.39) translate(-350.10744 46.08)"
        >
          <path
            class="c1"
            d="M91.72121,76.23584v34.41898c0,2.0882,0.21606,2.3042,2.3042,2.3042h23.61816v9.36081H94.02541 c-6.62451,0-11.66504-5.04044-11.66504-11.66501V76.23584H91.72121z"
            transform="translate(267.74707 -122.31584)"
            stroke-width="0"
            stroke-linejoin="miter"
            stroke-miterlimit="2"
            fill="#d49b9b"
            stroke="#d49b9b"
          />
        </g>
        <g
          aria-label="u"
          transform="translate(0 319.64536000000004) translate(340.3276121500001 44.0384) scale(1.39) translate(-388.49806 37.44)"
        >
          <path
            class="c1"
            d="M108.64308,122.31979v-2.80823c-2.08838,2.16022-5.11279,3.16827-9.50488,3.16827 c-11.66504,0-17.1377-5.40045-17.1377-16.92145V84.87655h9.36084v18.72168c0,6.69653,1.65625,9.86481,6.19238,9.86481h5.47266 c4.53662,0,5.6167-3.16827,5.6167-8.2807V84.87655h9.36084v37.44324H108.64308z"
            transform="translate(306.49756 -122.31655)"
            stroke-width="0"
            stroke-linejoin="miter"
            stroke-miterlimit="2"
            fill="#d49b9b"
            stroke="#d49b9b"
          />
        </g>
        <g
          aria-label="c"
          transform="translate(0 319.64536000000004) translate(394.8634003500001 43.538000000000004) scale(1.39) translate(-427.73244 37.8)"
        >
          <path
            class="c1"
            d="M81.28029,103.45419c0-12.60107,6.84058-18.93762,19.08167-18.93762 c10.00891,0,16.77747,4.32037,18.28955,12.38507h-9.57678c-1.44012-2.23224-3.74432-3.4563-6.55261-3.4563H98.2018 c-4.89648,0-8.28076,3.74432-8.28076,10.00885s3.38428,10.00885,8.28076,10.00885h4.32031 c2.95227,0,5.32849-1.3681,6.76868-3.81635h9.43274c-1.51208,9.00079-8.35266,13.10516-18.36157,13.10516 C87.61684,122.75185,81.28029,115.91128,81.28029,103.45419z"
            transform="translate(346.45215 -122.31657)"
            stroke-width="0"
            stroke-linejoin="miter"
            stroke-miterlimit="2"
            fill="#d49b9b"
            stroke="#d49b9b"
          />
        </g>
        <g
          aria-label="i"
          transform="translate(0 319.64536000000004) translate(451.35386215000017 32.028800000000004) scale(1.39) translate(-468.37306 46.08)"
        >
          <rect
            x="95.32033"
            y="76.2358"
            class="c3"
            width="9.36084"
            height="5.7605"
            transform="translate(373.052732 -122.315802)"
            stroke-width="0"
            stroke-linejoin="miter"
            stroke-miterlimit="2"
            fill="#212121"
            stroke="#212121"
          />
          <polygon
            class="c1"
            points="104.60915,122.31979 95.32033,122.31979 95.32033,84.87655 104.68117,84.87655 "
            transform="translate(373.052732 -122.315802)"
            stroke-width="0"
            stroke-linejoin="miter"
            stroke-miterlimit="2"
            fill="#d49b9b"
            stroke="#d49b9b"
          />
        </g>
        <g
          aria-label="a"
          transform="translate(0 319.64536000000004) translate(468.75058785000016 43.538000000000004) scale(1.39) translate(-480.88869 37.8)"
        >
          <path
            class="c1"
            d="M80.88426,103.45419c0-10.44092,7.1286-18.93762,17.64154-18.93762 c4.75238,0,8.4967,1.72815,11.23297,4.6084v-4.24841h9.36078v37.44324h-9.36078v-4.24835 c-2.73627,2.95227-6.48059,4.68042-11.23297,4.68042C88.01286,122.75185,80.88426,114.18313,80.88426,103.45419z M97.80571,113.46304h4.32037c4.89642,0,7.63269-3.02423,7.63269-7.84869v-4.32031c0-4.82446-2.73627-7.84869-7.63269-7.84869 h-4.32037c-4.89642,0-8.2807,3.74432-8.2807,10.00885S92.90929,113.46304,97.80571,113.46304z"
            transform="translate(400.00443 -122.31657)"
            stroke-width="0"
            stroke-linejoin="miter"
            stroke-miterlimit="2"
            fill="#d49b9b"
            stroke="#d49b9b"
          />
        </g>
        <g
          aria-label="n"
          transform="translate(0 319.64536000000004) translate(526.2184003500003 43.538000000000004) scale(1.39) translate(-522.23244 37.8)"
        >
          <path
            class="c1"
            d="M91.36134,84.87655v2.80829c2.08838-2.16022,5.11255-3.16827,9.50488-3.16827 c11.66504,0,17.13745,5.40045,17.13745,16.92145v20.88177h-9.36084v-18.72156c0-6.69659-1.65601-9.86487-6.19238-9.86487h-5.47241 c-4.53662,0-5.6167,3.16827-5.6167,8.2807v20.30573H82.0005V84.87655H91.36134z"
            transform="translate(440.23194 -122.31657)"
            stroke-width="0"
            stroke-linejoin="miter"
            stroke-miterlimit="2"
            fill="#d49b9b"
            stroke="#d49b9b"
          />
        </g>
        <g
          aria-label="^V"
          transform="translate(0 319.64536000000004) translate(580.7541746500002 32.028800000000004) scale(1.39) translate(-561.46681 46.08)"
        >
          <path
            class="c3"
            d="M84.88087,76.23581l14.11328,41.04358h2.01611l14.11328-41.04358h5.76074l-15.84131,46.08398H94.96193 L79.12062,76.23581H84.88087z"
            transform="translate(482.34619 -122.31581)"
            stroke-width="0"
            stroke-linejoin="miter"
            stroke-miterlimit="2"
            fill="#212121"
            stroke="#212121"
          />
        </g>
        <g
          aria-label="^u"
          transform="translate(0 319.64536000000004) translate(643.1087128500002 44.0384) scale(1.39) translate(-606.32619 37.44)"
        >
          <path
            class="c3"
            d="M110.26271,122.31984v-3.24023c-2.23193,2.44812-5.54443,3.60022-10.22461,3.60022 c-11.37695,0-15.69727-5.83252-15.69727-16.92151V84.8766h5.40039v22.53796c0,6.69653,3.09619,9.86475,7.63281,9.86475h5.83252 c4.53613,0,7.05615-3.16821,7.05615-8.28064V84.8766h5.40088v37.44324H110.26271z"
            transform="translate(521.98536 -122.3166)"
            stroke-width="0"
            stroke-linejoin="miter"
            stroke-miterlimit="2"
            fill="#212121"
            stroke="#212121"
          />
        </g>
        <g
          aria-label="^c"
          transform="translate(0 319.64536000000004) translate(690.9985496500002 43.538000000000004) scale(1.39) translate(-640.77931 37.8)"
        >
          <path
            class="c3"
            d="M83.4402,103.52614c0-12.45703,6.48059-19.00952,16.84949-19.00952 c7.92065,0,13.89722,3.88818,16.05737,11.88098h-5.40045c-1.65619-4.24841-4.17633-6.48059-7.92072-6.48059h-4.82434 c-6.26459,0-9.36084,3.4563-9.36084,13.60913c0,10.15295,3.09625,13.60925,9.36084,13.60925h4.68036 c3.74432,0,6.55255-2.37622,8.2807-7.05664h5.40051c-2.01624,7.99268-7.92072,12.60107-16.27344,12.60107 C89.48878,122.67982,83.4402,115.47926,83.4402,103.52614z"
            transform="translate(557.33911 -122.31662)"
            stroke-width="0"
            stroke-linejoin="miter"
            stroke-miterlimit="2"
            fill="#212121"
            stroke="#212121"
          />
        </g>
      </g>
    </g>
  </g>
</svg>
